<?xml version="1.0" encoding="utf-8" standalone="no"?>
<!DOCTYPE svg PUBLIC "-//W3C//DTD SVG 1.1//EN"
  "http://www.w3.org/Graphics/SVG/1.1/DTD/svg11.dtd">
<!-- Created with matplotlib (https://matplotlib.org/) -->
<svg height="263.63625pt" version="1.1" viewBox="0 0 377.304687 263.63625" width="377.304687pt" xmlns="http://www.w3.org/2000/svg" xmlns:xlink="http://www.w3.org/1999/xlink">
 <defs>
  <style type="text/css">
*{stroke-linecap:butt;stroke-linejoin:round;}
  </style>
 </defs>
 <g id="figure_1">
  <g id="patch_1">
   <path d="M 0 263.63625 
L 377.304687 263.63625 
L 377.304687 0 
L 0 0 
z
" style="fill:#ffffff;"/>
  </g>
  <g id="axes_1">
   <g id="patch_2">
    <path d="M 35.304688 239.758125 
L 370.104688 239.758125 
L 370.104688 22.318125 
L 35.304688 22.318125 
z
" style="fill:#ffffff;"/>
   </g>
   <g id="matplotlib.axis_1">
    <g id="xtick_1">
     <g id="line2d_1">
      <defs>
       <path d="M 0 0 
L 0 3.5 
" id="m15b7d1114d" style="stroke:#000000;stroke-width:0.8;"/>
      </defs>
      <g>
       <use style="stroke:#000000;stroke-width:0.8;" x="80.959233" xlink:href="#m15b7d1114d" y="239.758125"/>
      </g>
     </g>
     <g id="text_1">
      <!-- −4 -->
      <defs>
       <path d="M 10.59375 35.5 
L 73.1875 35.5 
L 73.1875 27.203125 
L 10.59375 27.203125 
z
" id="DejaVuSans-8722"/>
       <path d="M 37.796875 64.3125 
L 12.890625 25.390625 
L 37.796875 25.390625 
z
M 35.203125 72.90625 
L 47.609375 72.90625 
L 47.609375 25.390625 
L 58.015625 25.390625 
L 58.015625 17.1875 
L 47.609375 17.1875 
L 47.609375 0 
L 37.796875 0 
L 37.796875 17.1875 
L 4.890625 17.1875 
L 4.890625 26.703125 
z
" id="DejaVuSans-52"/>
      </defs>
      <g transform="translate(73.588139 254.356563)scale(0.1 -0.1)">
       <use xlink:href="#DejaVuSans-8722"/>
       <use x="83.789062" xlink:href="#DejaVuSans-52"/>
      </g>
     </g>
    </g>
    <g id="xtick_2">
     <g id="line2d_2">
      <g>
       <use style="stroke:#000000;stroke-width:0.8;" x="141.83196" xlink:href="#m15b7d1114d" y="239.758125"/>
      </g>
     </g>
     <g id="text_2">
      <!-- −2 -->
      <defs>
       <path d="M 19.1875 8.296875 
L 53.609375 8.296875 
L 53.609375 0 
L 7.328125 0 
L 7.328125 8.296875 
Q 12.9375 14.109375 22.625 23.890625 
Q 32.328125 33.6875 34.8125 36.53125 
Q 39.546875 41.84375 41.421875 45.53125 
Q 43.3125 49.21875 43.3125 52.78125 
Q 43.3125 58.59375 39.234375 62.25 
Q 35.15625 65.921875 28.609375 65.921875 
Q 23.96875 65.921875 18.8125 64.3125 
Q 13.671875 62.703125 7.8125 59.421875 
L 7.8125 69.390625 
Q 13.765625 71.78125 18.9375 73 
Q 24.125 74.21875 28.421875 74.21875 
Q 39.75 74.21875 46.484375 68.546875 
Q 53.21875 62.890625 53.21875 53.421875 
Q 53.21875 48.921875 51.53125 44.890625 
Q 49.859375 40.875 45.40625 35.40625 
Q 44.1875 33.984375 37.640625 27.21875 
Q 31.109375 20.453125 19.1875 8.296875 
z
" id="DejaVuSans-50"/>
      </defs>
      <g transform="translate(134.460866 254.356563)scale(0.1 -0.1)">
       <use xlink:href="#DejaVuSans-8722"/>
       <use x="83.789062" xlink:href="#DejaVuSans-50"/>
      </g>
     </g>
    </g>
    <g id="xtick_3">
     <g id="line2d_3">
      <g>
       <use style="stroke:#000000;stroke-width:0.8;" x="202.704688" xlink:href="#m15b7d1114d" y="239.758125"/>
      </g>
     </g>
     <g id="text_3">
      <!-- 0 -->
      <defs>
       <path d="M 31.78125 66.40625 
Q 24.171875 66.40625 20.328125 58.90625 
Q 16.5 51.421875 16.5 36.375 
Q 16.5 21.390625 20.328125 13.890625 
Q 24.171875 6.390625 31.78125 6.390625 
Q 39.453125 6.390625 43.28125 13.890625 
Q 47.125 21.390625 47.125 36.375 
Q 47.125 51.421875 43.28125 58.90625 
Q 39.453125 66.40625 31.78125 66.40625 
z
M 31.78125 74.21875 
Q 44.046875 74.21875 50.515625 64.515625 
Q 56.984375 54.828125 56.984375 36.375 
Q 56.984375 17.96875 50.515625 8.265625 
Q 44.046875 -1.421875 31.78125 -1.421875 
Q 19.53125 -1.421875 13.0625 8.265625 
Q 6.59375 17.96875 6.59375 36.375 
Q 6.59375 54.828125 13.0625 64.515625 
Q 19.53125 74.21875 31.78125 74.21875 
z
" id="DejaVuSans-48"/>
      </defs>
      <g transform="translate(199.523438 254.356563)scale(0.1 -0.1)">
       <use xlink:href="#DejaVuSans-48"/>
      </g>
     </g>
    </g>
    <g id="xtick_4">
     <g id="line2d_4">
      <g>
       <use style="stroke:#000000;stroke-width:0.8;" x="263.577415" xlink:href="#m15b7d1114d" y="239.758125"/>
      </g>
     </g>
     <g id="text_4">
      <!-- 2 -->
      <g transform="translate(260.396165 254.356563)scale(0.1 -0.1)">
       <use xlink:href="#DejaVuSans-50"/>
      </g>
     </g>
    </g>
    <g id="xtick_5">
     <g id="line2d_5">
      <g>
       <use style="stroke:#000000;stroke-width:0.8;" x="324.450142" xlink:href="#m15b7d1114d" y="239.758125"/>
      </g>
     </g>
     <g id="text_5">
      <!-- 4 -->
      <g transform="translate(321.268892 254.356563)scale(0.1 -0.1)">
       <use xlink:href="#DejaVuSans-52"/>
      </g>
     </g>
    </g>
   </g>
   <g id="matplotlib.axis_2">
    <g id="ytick_1">
     <g id="line2d_6">
      <defs>
       <path d="M 0 0 
L -3.5 0 
" id="m175aa32259" style="stroke:#000000;stroke-width:0.8;"/>
      </defs>
      <g>
       <use style="stroke:#000000;stroke-width:0.8;" x="35.304688" xlink:href="#m175aa32259" y="222.859758"/>
      </g>
     </g>
     <g id="text_6">
      <!-- −20 -->
      <g transform="translate(7.2 226.658977)scale(0.1 -0.1)">
       <use xlink:href="#DejaVuSans-8722"/>
       <use x="83.789062" xlink:href="#DejaVuSans-50"/>
       <use x="147.412109" xlink:href="#DejaVuSans-48"/>
      </g>
     </g>
    </g>
    <g id="ytick_2">
     <g id="line2d_7">
      <g>
       <use style="stroke:#000000;stroke-width:0.8;" x="35.304688" xlink:href="#m175aa32259" y="197.805671"/>
      </g>
     </g>
     <g id="text_7">
      <!-- 0 -->
      <g transform="translate(21.942188 201.604889)scale(0.1 -0.1)">
       <use xlink:href="#DejaVuSans-48"/>
      </g>
     </g>
    </g>
    <g id="ytick_3">
     <g id="line2d_8">
      <g>
       <use style="stroke:#000000;stroke-width:0.8;" x="35.304688" xlink:href="#m175aa32259" y="172.751583"/>
      </g>
     </g>
     <g id="text_8">
      <!-- 20 -->
      <g transform="translate(15.579688 176.550802)scale(0.1 -0.1)">
       <use xlink:href="#DejaVuSans-50"/>
       <use x="63.623047" xlink:href="#DejaVuSans-48"/>
      </g>
     </g>
    </g>
    <g id="ytick_4">
     <g id="line2d_9">
      <g>
       <use style="stroke:#000000;stroke-width:0.8;" x="35.304688" xlink:href="#m175aa32259" y="147.697495"/>
      </g>
     </g>
     <g id="text_9">
      <!-- 40 -->
      <g transform="translate(15.579688 151.496714)scale(0.1 -0.1)">
       <use xlink:href="#DejaVuSans-52"/>
       <use x="63.623047" xlink:href="#DejaVuSans-48"/>
      </g>
     </g>
    </g>
    <g id="ytick_5">
     <g id="line2d_10">
      <g>
       <use style="stroke:#000000;stroke-width:0.8;" x="35.304688" xlink:href="#m175aa32259" y="122.643407"/>
      </g>
     </g>
     <g id="text_10">
      <!-- 60 -->
      <defs>
       <path d="M 33.015625 40.375 
Q 26.375 40.375 22.484375 35.828125 
Q 18.609375 31.296875 18.609375 23.390625 
Q 18.609375 15.53125 22.484375 10.953125 
Q 26.375 6.390625 33.015625 6.390625 
Q 39.65625 6.390625 43.53125 10.953125 
Q 47.40625 15.53125 47.40625 23.390625 
Q 47.40625 31.296875 43.53125 35.828125 
Q 39.65625 40.375 33.015625 40.375 
z
M 52.59375 71.296875 
L 52.59375 62.3125 
Q 48.875 64.0625 45.09375 64.984375 
Q 41.3125 65.921875 37.59375 65.921875 
Q 27.828125 65.921875 22.671875 59.328125 
Q 17.53125 52.734375 16.796875 39.40625 
Q 19.671875 43.65625 24.015625 45.921875 
Q 28.375 48.1875 33.59375 48.1875 
Q 44.578125 48.1875 50.953125 41.515625 
Q 57.328125 34.859375 57.328125 23.390625 
Q 57.328125 12.15625 50.6875 5.359375 
Q 44.046875 -1.421875 33.015625 -1.421875 
Q 20.359375 -1.421875 13.671875 8.265625 
Q 6.984375 17.96875 6.984375 36.375 
Q 6.984375 53.65625 15.1875 63.9375 
Q 23.390625 74.21875 37.203125 74.21875 
Q 40.921875 74.21875 44.703125 73.484375 
Q 48.484375 72.75 52.59375 71.296875 
z
" id="DejaVuSans-54"/>
      </defs>
      <g transform="translate(15.579688 126.442626)scale(0.1 -0.1)">
       <use xlink:href="#DejaVuSans-54"/>
       <use x="63.623047" xlink:href="#DejaVuSans-48"/>
      </g>
     </g>
    </g>
    <g id="ytick_6">
     <g id="line2d_11">
      <g>
       <use style="stroke:#000000;stroke-width:0.8;" x="35.304688" xlink:href="#m175aa32259" y="97.58932"/>
      </g>
     </g>
     <g id="text_11">
      <!-- 80 -->
      <defs>
       <path d="M 31.78125 34.625 
Q 24.75 34.625 20.71875 30.859375 
Q 16.703125 27.09375 16.703125 20.515625 
Q 16.703125 13.921875 20.71875 10.15625 
Q 24.75 6.390625 31.78125 6.390625 
Q 38.8125 6.390625 42.859375 10.171875 
Q 46.921875 13.96875 46.921875 20.515625 
Q 46.921875 27.09375 42.890625 30.859375 
Q 38.875 34.625 31.78125 34.625 
z
M 21.921875 38.8125 
Q 15.578125 40.375 12.03125 44.71875 
Q 8.5 49.078125 8.5 55.328125 
Q 8.5 64.0625 14.71875 69.140625 
Q 20.953125 74.21875 31.78125 74.21875 
Q 42.671875 74.21875 48.875 69.140625 
Q 55.078125 64.0625 55.078125 55.328125 
Q 55.078125 49.078125 51.53125 44.71875 
Q 48 40.375 41.703125 38.8125 
Q 48.828125 37.15625 52.796875 32.3125 
Q 56.78125 27.484375 56.78125 20.515625 
Q 56.78125 9.90625 50.3125 4.234375 
Q 43.84375 -1.421875 31.78125 -1.421875 
Q 19.734375 -1.421875 13.25 4.234375 
Q 6.78125 9.90625 6.78125 20.515625 
Q 6.78125 27.484375 10.78125 32.3125 
Q 14.796875 37.15625 21.921875 38.8125 
z
M 18.3125 54.390625 
Q 18.3125 48.734375 21.84375 45.5625 
Q 25.390625 42.390625 31.78125 42.390625 
Q 38.140625 42.390625 41.71875 45.5625 
Q 45.3125 48.734375 45.3125 54.390625 
Q 45.3125 60.0625 41.71875 63.234375 
Q 38.140625 66.40625 31.78125 66.40625 
Q 25.390625 66.40625 21.84375 63.234375 
Q 18.3125 60.0625 18.3125 54.390625 
z
" id="DejaVuSans-56"/>
      </defs>
      <g transform="translate(15.579688 101.388538)scale(0.1 -0.1)">
       <use xlink:href="#DejaVuSans-56"/>
       <use x="63.623047" xlink:href="#DejaVuSans-48"/>
      </g>
     </g>
    </g>
    <g id="ytick_7">
     <g id="line2d_12">
      <g>
       <use style="stroke:#000000;stroke-width:0.8;" x="35.304688" xlink:href="#m175aa32259" y="72.535232"/>
      </g>
     </g>
     <g id="text_12">
      <!-- 100 -->
      <defs>
       <path d="M 12.40625 8.296875 
L 28.515625 8.296875 
L 28.515625 63.921875 
L 10.984375 60.40625 
L 10.984375 69.390625 
L 28.421875 72.90625 
L 38.28125 72.90625 
L 38.28125 8.296875 
L 54.390625 8.296875 
L 54.390625 0 
L 12.40625 0 
z
" id="DejaVuSans-49"/>
      </defs>
      <g transform="translate(9.217188 76.334451)scale(0.1 -0.1)">
       <use xlink:href="#DejaVuSans-49"/>
       <use x="63.623047" xlink:href="#DejaVuSans-48"/>
       <use x="127.246094" xlink:href="#DejaVuSans-48"/>
      </g>
     </g>
    </g>
    <g id="ytick_8">
     <g id="line2d_13">
      <g>
       <use style="stroke:#000000;stroke-width:0.8;" x="35.304688" xlink:href="#m175aa32259" y="47.481144"/>
      </g>
     </g>
     <g id="text_13">
      <!-- 120 -->
      <g transform="translate(9.217188 51.280363)scale(0.1 -0.1)">
       <use xlink:href="#DejaVuSans-49"/>
       <use x="63.623047" xlink:href="#DejaVuSans-50"/>
       <use x="127.246094" xlink:href="#DejaVuSans-48"/>
      </g>
     </g>
    </g>
    <g id="ytick_9">
     <g id="line2d_14">
      <g>
       <use style="stroke:#000000;stroke-width:0.8;" x="35.304688" xlink:href="#m175aa32259" y="22.427056"/>
      </g>
     </g>
     <g id="text_14">
      <!-- 140 -->
      <g transform="translate(9.217188 26.226275)scale(0.1 -0.1)">
       <use xlink:href="#DejaVuSans-49"/>
       <use x="63.623047" xlink:href="#DejaVuSans-52"/>
       <use x="127.246094" xlink:href="#DejaVuSans-48"/>
      </g>
     </g>
    </g>
   </g>
   <g id="line2d_15">
    <path clip-path="url(#pb1d77a187e)" d="M 50.522869 172.401838 
L 53.597249 175.147225 
L 56.67163 177.66694 
L 59.74601 179.973287 
L 62.82039 182.078236 
L 65.89477 183.993428 
L 68.96915 185.730172 
L 72.04353 187.299444 
L 75.117911 188.711892 
L 78.192291 189.977831 
L 81.266671 191.107244 
L 84.341051 192.109784 
L 87.415431 192.994772 
L 90.489811 193.771199 
L 93.564192 194.447724 
L 96.638572 195.032674 
L 99.712952 195.534045 
L 102.787332 195.959504 
L 105.861712 196.316383 
L 108.936092 196.611687 
L 112.010473 196.852085 
L 115.084853 197.043919 
L 118.159233 197.193197 
L 121.233613 197.305597 
L 124.307993 197.386466 
L 127.382373 197.440819 
L 130.456754 197.473341 
L 133.531134 197.488383 
L 136.605514 197.489968 
L 139.679894 197.481786 
L 142.754274 197.467196 
L 145.828654 197.449226 
L 148.903035 197.430573 
L 151.977415 197.413601 
L 155.051795 197.400346 
L 158.126175 197.39251 
L 161.200555 197.391465 
L 164.274935 197.398251 
L 167.349316 197.413578 
L 170.423696 197.437823 
L 173.498076 197.471033 
L 176.572456 197.512924 
L 179.646836 197.56288 
L 182.721216 197.619954 
L 185.795597 197.682868 
L 188.869977 197.750012 
L 191.944357 197.819446 
L 195.018737 197.888898 
L 198.093117 197.955764 
L 201.167497 198.017111 
L 204.241878 198.069672 
L 207.316258 198.10985 
L 210.390638 198.133719 
L 213.465018 198.137017 
L 216.539398 198.115156 
L 219.613778 198.063212 
L 222.688159 197.975933 
L 225.762539 197.847734 
L 228.836919 197.6727 
L 231.911299 197.444584 
L 234.985679 197.156809 
L 238.060059 196.802464 
L 241.13444 196.37431 
L 244.20882 195.864774 
L 247.2832 195.265954 
L 250.35758 194.569616 
L 253.43196 193.767194 
L 256.50634 192.849791 
L 259.580721 191.808179 
L 262.655101 190.6328 
L 265.729481 189.313762 
L 268.803861 187.840845 
L 271.878241 186.203495 
L 274.952621 184.390829 
L 278.027002 182.39163 
L 281.101382 180.194353 
L 284.175762 177.78712 
L 287.250142 175.15772 
L 290.324522 172.293615 
L 293.398902 169.181933 
L 296.473283 165.80947 
L 299.547663 162.162694 
L 302.622043 158.227738 
L 305.696423 153.990406 
L 308.770803 149.43617 
L 311.845183 144.550172 
L 314.919564 139.317221 
L 317.993944 133.721796 
L 321.068324 127.748044 
L 324.142704 121.379781 
L 327.217084 114.600492 
L 330.291464 107.393331 
L 333.365845 99.74112 
L 336.440225 91.62635 
L 339.514605 83.031181 
L 342.588985 73.937441 
L 345.663365 64.326629 
L 348.737745 54.179911 
L 351.812126 43.47812 
L 354.886506 32.201761 
" style="fill:none;stroke:#ff0000;stroke-linecap:square;stroke-width:2;"/>
   </g>
   <g id="line2d_16">
    <defs>
     <path d="M 0 -3 
L -0.673542 -0.927051 
L -2.85317 -0.927051 
L -1.089814 0.354102 
L -1.763356 2.427051 
L -0 1.145898 
L 1.763356 2.427051 
L 1.089814 0.354102 
L 2.85317 -0.927051 
L 0.673542 -0.927051 
z
" id="m7354f81510" style="stroke:#0000ff;stroke-linejoin:bevel;"/>
    </defs>
    <g clip-path="url(#pb1d77a187e)">
     <use style="fill:#0000ff;stroke:#0000ff;stroke-linejoin:bevel;" x="54.361801" xlink:href="#m7354f81510" y="193.671712"/>
     <use style="fill:#0000ff;stroke:#0000ff;stroke-linejoin:bevel;" x="62.069627" xlink:href="#m7354f81510" y="152.079946"/>
     <use style="fill:#0000ff;stroke:#0000ff;stroke-linejoin:bevel;" x="67.452328" xlink:href="#m7354f81510" y="171.557923"/>
     <use style="fill:#0000ff;stroke:#0000ff;stroke-linejoin:bevel;" x="78.865532" xlink:href="#m7354f81510" y="207.957287"/>
     <use style="fill:#0000ff;stroke:#0000ff;stroke-linejoin:bevel;" x="85.386544" xlink:href="#m7354f81510" y="193.65004"/>
     <use style="fill:#0000ff;stroke:#0000ff;stroke-linejoin:bevel;" x="89.115544" xlink:href="#m7354f81510" y="189.271334"/>
     <use style="fill:#0000ff;stroke:#0000ff;stroke-linejoin:bevel;" x="98.648624" xlink:href="#m7354f81510" y="183.209441"/>
     <use style="fill:#0000ff;stroke:#0000ff;stroke-linejoin:bevel;" x="102.554075" xlink:href="#m7354f81510" y="205.419107"/>
     <use style="fill:#0000ff;stroke:#0000ff;stroke-linejoin:bevel;" x="107.184033" xlink:href="#m7354f81510" y="203.510748"/>
     <use style="fill:#0000ff;stroke:#0000ff;stroke-linejoin:bevel;" x="108.917804" xlink:href="#m7354f81510" y="193.95977"/>
     <use style="fill:#0000ff;stroke:#0000ff;stroke-linejoin:bevel;" x="111.269211" xlink:href="#m7354f81510" y="199.113339"/>
     <use style="fill:#0000ff;stroke:#0000ff;stroke-linejoin:bevel;" x="111.978742" xlink:href="#m7354f81510" y="218.765382"/>
     <use style="fill:#0000ff;stroke:#0000ff;stroke-linejoin:bevel;" x="114.172195" xlink:href="#m7354f81510" y="210.345544"/>
     <use style="fill:#0000ff;stroke:#0000ff;stroke-linejoin:bevel;" x="116.831688" xlink:href="#m7354f81510" y="212.450348"/>
     <use style="fill:#0000ff;stroke:#0000ff;stroke-linejoin:bevel;" x="120.908535" xlink:href="#m7354f81510" y="186.381786"/>
     <use style="fill:#0000ff;stroke:#0000ff;stroke-linejoin:bevel;" x="136.444826" xlink:href="#m7354f81510" y="201.004854"/>
     <use style="fill:#0000ff;stroke:#0000ff;stroke-linejoin:bevel;" x="148.553856" xlink:href="#m7354f81510" y="206.666456"/>
     <use style="fill:#0000ff;stroke:#0000ff;stroke-linejoin:bevel;" x="150.5756" xlink:href="#m7354f81510" y="211.329179"/>
     <use style="fill:#0000ff;stroke:#0000ff;stroke-linejoin:bevel;" x="151.773814" xlink:href="#m7354f81510" y="229.874489"/>
     <use style="fill:#0000ff;stroke:#0000ff;stroke-linejoin:bevel;" x="169.156234" xlink:href="#m7354f81510" y="201.558435"/>
     <use style="fill:#0000ff;stroke:#0000ff;stroke-linejoin:bevel;" x="177.796276" xlink:href="#m7354f81510" y="190.764845"/>
     <use style="fill:#0000ff;stroke:#0000ff;stroke-linejoin:bevel;" x="187.6719" xlink:href="#m7354f81510" y="202.808571"/>
     <use style="fill:#0000ff;stroke:#0000ff;stroke-linejoin:bevel;" x="199.230745" xlink:href="#m7354f81510" y="206.896442"/>
     <use style="fill:#0000ff;stroke:#0000ff;stroke-linejoin:bevel;" x="200.844364" xlink:href="#m7354f81510" y="185.315581"/>
     <use style="fill:#0000ff;stroke:#0000ff;stroke-linejoin:bevel;" x="213.831395" xlink:href="#m7354f81510" y="197.358777"/>
     <use style="fill:#0000ff;stroke:#0000ff;stroke-linejoin:bevel;" x="216.494628" xlink:href="#m7354f81510" y="188.115925"/>
     <use style="fill:#0000ff;stroke:#0000ff;stroke-linejoin:bevel;" x="216.878298" xlink:href="#m7354f81510" y="195.057597"/>
     <use style="fill:#0000ff;stroke:#0000ff;stroke-linejoin:bevel;" x="218.554149" xlink:href="#m7354f81510" y="193.426141"/>
     <use style="fill:#0000ff;stroke:#0000ff;stroke-linejoin:bevel;" x="220.420063" xlink:href="#m7354f81510" y="206.649906"/>
     <use style="fill:#0000ff;stroke:#0000ff;stroke-linejoin:bevel;" x="225.639623" xlink:href="#m7354f81510" y="187.420237"/>
     <use style="fill:#0000ff;stroke:#0000ff;stroke-linejoin:bevel;" x="228.412217" xlink:href="#m7354f81510" y="203.081717"/>
     <use style="fill:#0000ff;stroke:#0000ff;stroke-linejoin:bevel;" x="237.704223" xlink:href="#m7354f81510" y="187.986995"/>
     <use style="fill:#0000ff;stroke:#0000ff;stroke-linejoin:bevel;" x="243.040987" xlink:href="#m7354f81510" y="197.973994"/>
     <use style="fill:#0000ff;stroke:#0000ff;stroke-linejoin:bevel;" x="251.170884" xlink:href="#m7354f81510" y="167.780943"/>
     <use style="fill:#0000ff;stroke:#0000ff;stroke-linejoin:bevel;" x="258.850244" xlink:href="#m7354f81510" y="185.919665"/>
     <use style="fill:#0000ff;stroke:#0000ff;stroke-linejoin:bevel;" x="259.026752" xlink:href="#m7354f81510" y="206.956431"/>
     <use style="fill:#0000ff;stroke:#0000ff;stroke-linejoin:bevel;" x="260.173393" xlink:href="#m7354f81510" y="197.847537"/>
     <use style="fill:#0000ff;stroke:#0000ff;stroke-linejoin:bevel;" x="279.247051" xlink:href="#m7354f81510" y="185.272405"/>
     <use style="fill:#0000ff;stroke:#0000ff;stroke-linejoin:bevel;" x="284.499482" xlink:href="#m7354f81510" y="170.130456"/>
     <use style="fill:#0000ff;stroke:#0000ff;stroke-linejoin:bevel;" x="292.804402" xlink:href="#m7354f81510" y="156.859827"/>
     <use style="fill:#0000ff;stroke:#0000ff;stroke-linejoin:bevel;" x="307.715484" xlink:href="#m7354f81510" y="149.143031"/>
     <use style="fill:#0000ff;stroke:#0000ff;stroke-linejoin:bevel;" x="308.424466" xlink:href="#m7354f81510" y="164.329615"/>
     <use style="fill:#0000ff;stroke:#0000ff;stroke-linejoin:bevel;" x="309.300258" xlink:href="#m7354f81510" y="170.892263"/>
     <use style="fill:#0000ff;stroke:#0000ff;stroke-linejoin:bevel;" x="309.727723" xlink:href="#m7354f81510" y="148.538081"/>
     <use style="fill:#0000ff;stroke:#0000ff;stroke-linejoin:bevel;" x="316.585344" xlink:href="#m7354f81510" y="118.035163"/>
     <use style="fill:#0000ff;stroke:#0000ff;stroke-linejoin:bevel;" x="332.021564" xlink:href="#m7354f81510" y="101.563815"/>
     <use style="fill:#0000ff;stroke:#0000ff;stroke-linejoin:bevel;" x="333.045815" xlink:href="#m7354f81510" y="87.480959"/>
     <use style="fill:#0000ff;stroke:#0000ff;stroke-linejoin:bevel;" x="334.264125" xlink:href="#m7354f81510" y="86.605689"/>
     <use style="fill:#0000ff;stroke:#0000ff;stroke-linejoin:bevel;" x="339.74012" xlink:href="#m7354f81510" y="125.012096"/>
     <use style="fill:#0000ff;stroke:#0000ff;stroke-linejoin:bevel;" x="352.253295" xlink:href="#m7354f81510" y="53.448033"/>
    </g>
   </g>
   <g id="patch_3">
    <path d="M 35.304688 239.758125 
L 35.304688 22.318125 
" style="fill:none;stroke:#000000;stroke-linecap:square;stroke-linejoin:miter;stroke-width:0.8;"/>
   </g>
   <g id="patch_4">
    <path d="M 370.104688 239.758125 
L 370.104688 22.318125 
" style="fill:none;stroke:#000000;stroke-linecap:square;stroke-linejoin:miter;stroke-width:0.8;"/>
   </g>
   <g id="patch_5">
    <path d="M 35.304688 239.758125 
L 370.104688 239.758125 
" style="fill:none;stroke:#000000;stroke-linecap:square;stroke-linejoin:miter;stroke-width:0.8;"/>
   </g>
   <g id="patch_6">
    <path d="M 35.304688 22.318125 
L 370.104688 22.318125 
" style="fill:none;stroke:#000000;stroke-linecap:square;stroke-linejoin:miter;stroke-width:0.8;"/>
   </g>
   <g id="text_15">
    <!-- 0.11x^4 +0.46x^3 +0.41x^2 -0.42x -0.19 -->
    <defs>
     <path d="M 10.6875 12.40625 
L 21 12.40625 
L 21 0 
L 10.6875 0 
z
" id="DejaVuSans-46"/>
     <path d="M 54.890625 54.6875 
L 35.109375 28.078125 
L 55.90625 0 
L 45.3125 0 
L 29.390625 21.484375 
L 13.484375 0 
L 2.875 0 
L 24.125 28.609375 
L 4.6875 54.6875 
L 15.28125 54.6875 
L 29.78125 35.203125 
L 44.28125 54.6875 
z
" id="DejaVuSans-120"/>
     <path d="M 46.6875 72.90625 
L 73.1875 45.703125 
L 63.375 45.703125 
L 41.890625 64.984375 
L 20.40625 45.703125 
L 10.59375 45.703125 
L 37.109375 72.90625 
z
" id="DejaVuSans-94"/>
     <path id="DejaVuSans-32"/>
     <path d="M 46 62.703125 
L 46 35.5 
L 73.1875 35.5 
L 73.1875 27.203125 
L 46 27.203125 
L 46 0 
L 37.796875 0 
L 37.796875 27.203125 
L 10.59375 27.203125 
L 10.59375 35.5 
L 37.796875 35.5 
L 37.796875 62.703125 
z
" id="DejaVuSans-43"/>
     <path d="M 40.578125 39.3125 
Q 47.65625 37.796875 51.625 33 
Q 55.609375 28.21875 55.609375 21.1875 
Q 55.609375 10.40625 48.1875 4.484375 
Q 40.765625 -1.421875 27.09375 -1.421875 
Q 22.515625 -1.421875 17.65625 -0.515625 
Q 12.796875 0.390625 7.625 2.203125 
L 7.625 11.71875 
Q 11.71875 9.328125 16.59375 8.109375 
Q 21.484375 6.890625 26.8125 6.890625 
Q 36.078125 6.890625 40.9375 10.546875 
Q 45.796875 14.203125 45.796875 21.1875 
Q 45.796875 27.640625 41.28125 31.265625 
Q 36.765625 34.90625 28.71875 34.90625 
L 20.21875 34.90625 
L 20.21875 43.015625 
L 29.109375 43.015625 
Q 36.375 43.015625 40.234375 45.921875 
Q 44.09375 48.828125 44.09375 54.296875 
Q 44.09375 59.90625 40.109375 62.90625 
Q 36.140625 65.921875 28.71875 65.921875 
Q 24.65625 65.921875 20.015625 65.03125 
Q 15.375 64.15625 9.8125 62.3125 
L 9.8125 71.09375 
Q 15.4375 72.65625 20.34375 73.4375 
Q 25.25 74.21875 29.59375 74.21875 
Q 40.828125 74.21875 47.359375 69.109375 
Q 53.90625 64.015625 53.90625 55.328125 
Q 53.90625 49.265625 50.4375 45.09375 
Q 46.96875 40.921875 40.578125 39.3125 
z
" id="DejaVuSans-51"/>
     <path d="M 4.890625 31.390625 
L 31.203125 31.390625 
L 31.203125 23.390625 
L 4.890625 23.390625 
z
" id="DejaVuSans-45"/>
     <path d="M 10.984375 1.515625 
L 10.984375 10.5 
Q 14.703125 8.734375 18.5 7.8125 
Q 22.3125 6.890625 25.984375 6.890625 
Q 35.75 6.890625 40.890625 13.453125 
Q 46.046875 20.015625 46.78125 33.40625 
Q 43.953125 29.203125 39.59375 26.953125 
Q 35.25 24.703125 29.984375 24.703125 
Q 19.046875 24.703125 12.671875 31.3125 
Q 6.296875 37.9375 6.296875 49.421875 
Q 6.296875 60.640625 12.9375 67.421875 
Q 19.578125 74.21875 30.609375 74.21875 
Q 43.265625 74.21875 49.921875 64.515625 
Q 56.59375 54.828125 56.59375 36.375 
Q 56.59375 19.140625 48.40625 8.859375 
Q 40.234375 -1.421875 26.421875 -1.421875 
Q 22.703125 -1.421875 18.890625 -0.6875 
Q 15.09375 0.046875 10.984375 1.515625 
z
M 30.609375 32.421875 
Q 37.25 32.421875 41.125 36.953125 
Q 45.015625 41.5 45.015625 49.421875 
Q 45.015625 57.28125 41.125 61.84375 
Q 37.25 66.40625 30.609375 66.40625 
Q 23.96875 66.40625 20.09375 61.84375 
Q 16.21875 57.28125 16.21875 49.421875 
Q 16.21875 41.5 20.09375 36.953125 
Q 23.96875 32.421875 30.609375 32.421875 
z
" id="DejaVuSans-57"/>
    </defs>
    <g transform="translate(73.154375 16.318125)scale(0.12 -0.12)">
     <use xlink:href="#DejaVuSans-48"/>
     <use x="63.623047" xlink:href="#DejaVuSans-46"/>
     <use x="95.410156" xlink:href="#DejaVuSans-49"/>
     <use x="159.033203" xlink:href="#DejaVuSans-49"/>
     <use x="222.65625" xlink:href="#DejaVuSans-120"/>
     <use x="281.835938" xlink:href="#DejaVuSans-94"/>
     <use x="365.625" xlink:href="#DejaVuSans-52"/>
     <use x="429.248047" xlink:href="#DejaVuSans-32"/>
     <use x="461.035156" xlink:href="#DejaVuSans-43"/>
     <use x="544.824219" xlink:href="#DejaVuSans-48"/>
     <use x="608.447266" xlink:href="#DejaVuSans-46"/>
     <use x="640.234375" xlink:href="#DejaVuSans-52"/>
     <use x="703.857422" xlink:href="#DejaVuSans-54"/>
     <use x="767.480469" xlink:href="#DejaVuSans-120"/>
     <use x="826.660156" xlink:href="#DejaVuSans-94"/>
     <use x="910.449219" xlink:href="#DejaVuSans-51"/>
     <use x="974.072266" xlink:href="#DejaVuSans-32"/>
     <use x="1005.859375" xlink:href="#DejaVuSans-43"/>
     <use x="1089.648438" xlink:href="#DejaVuSans-48"/>
     <use x="1153.271484" xlink:href="#DejaVuSans-46"/>
     <use x="1185.058594" xlink:href="#DejaVuSans-52"/>
     <use x="1248.681641" xlink:href="#DejaVuSans-49"/>
     <use x="1312.304688" xlink:href="#DejaVuSans-120"/>
     <use x="1371.484375" xlink:href="#DejaVuSans-94"/>
     <use x="1455.273438" xlink:href="#DejaVuSans-50"/>
     <use x="1518.896484" xlink:href="#DejaVuSans-32"/>
     <use x="1550.683594" xlink:href="#DejaVuSans-45"/>
     <use x="1586.767578" xlink:href="#DejaVuSans-48"/>
     <use x="1650.390625" xlink:href="#DejaVuSans-46"/>
     <use x="1682.177734" xlink:href="#DejaVuSans-52"/>
     <use x="1745.800781" xlink:href="#DejaVuSans-50"/>
     <use x="1809.423828" xlink:href="#DejaVuSans-120"/>
     <use x="1868.603516" xlink:href="#DejaVuSans-32"/>
     <use x="1900.390625" xlink:href="#DejaVuSans-45"/>
     <use x="1936.474609" xlink:href="#DejaVuSans-48"/>
     <use x="2000.097656" xlink:href="#DejaVuSans-46"/>
     <use x="2031.884766" xlink:href="#DejaVuSans-49"/>
     <use x="2095.507812" xlink:href="#DejaVuSans-57"/>
    </g>
   </g>
  </g>
 </g>
 <defs>
  <clipPath id="pb1d77a187e">
   <rect height="217.44" width="334.8" x="35.304688" y="22.318125"/>
  </clipPath>
 </defs>
</svg>
