<?xml version="1.0" encoding="utf-8" standalone="no"?>
<!DOCTYPE svg PUBLIC "-//W3C//DTD SVG 1.1//EN"
  "http://www.w3.org/Graphics/SVG/1.1/DTD/svg11.dtd">
<!-- Created with matplotlib (https://matplotlib.org/) -->
<svg height="263.63625pt" version="1.1" viewBox="0 0 440.199375 263.63625" width="440.199375pt" xmlns="http://www.w3.org/2000/svg" xmlns:xlink="http://www.w3.org/1999/xlink">
 <defs>
  <style type="text/css">
*{stroke-linecap:butt;stroke-linejoin:round;}
  </style>
 </defs>
 <g id="figure_1">
  <g id="patch_1">
   <path d="M 0 263.63625 
L 440.199375 263.63625 
L 440.199375 0 
L 0 0 
z
" style="fill:#ffffff;"/>
  </g>
  <g id="axes_1">
   <g id="patch_2">
    <path d="M 52.699687 239.758125 
L 387.499687 239.758125 
L 387.499687 22.318125 
L 52.699687 22.318125 
z
" style="fill:#ffffff;"/>
   </g>
   <g id="matplotlib.axis_1">
    <g id="xtick_1">
     <g id="line2d_1">
      <defs>
       <path d="M 0 0 
L 0 3.5 
" id="m537e56240f" style="stroke:#000000;stroke-width:0.8;"/>
      </defs>
      <g>
       <use style="stroke:#000000;stroke-width:0.8;" x="98.354233" xlink:href="#m537e56240f" y="239.758125"/>
      </g>
     </g>
     <g id="text_1">
      <!-- −4 -->
      <defs>
       <path d="M 10.59375 35.5 
L 73.1875 35.5 
L 73.1875 27.203125 
L 10.59375 27.203125 
z
" id="DejaVuSans-8722"/>
       <path d="M 37.796875 64.3125 
L 12.890625 25.390625 
L 37.796875 25.390625 
z
M 35.203125 72.90625 
L 47.609375 72.90625 
L 47.609375 25.390625 
L 58.015625 25.390625 
L 58.015625 17.1875 
L 47.609375 17.1875 
L 47.609375 0 
L 37.796875 0 
L 37.796875 17.1875 
L 4.890625 17.1875 
L 4.890625 26.703125 
z
" id="DejaVuSans-52"/>
      </defs>
      <g transform="translate(90.983139 254.356563)scale(0.1 -0.1)">
       <use xlink:href="#DejaVuSans-8722"/>
       <use x="83.789062" xlink:href="#DejaVuSans-52"/>
      </g>
     </g>
    </g>
    <g id="xtick_2">
     <g id="line2d_2">
      <g>
       <use style="stroke:#000000;stroke-width:0.8;" x="159.22696" xlink:href="#m537e56240f" y="239.758125"/>
      </g>
     </g>
     <g id="text_2">
      <!-- −2 -->
      <defs>
       <path d="M 19.1875 8.296875 
L 53.609375 8.296875 
L 53.609375 0 
L 7.328125 0 
L 7.328125 8.296875 
Q 12.9375 14.109375 22.625 23.890625 
Q 32.328125 33.6875 34.8125 36.53125 
Q 39.546875 41.84375 41.421875 45.53125 
Q 43.3125 49.21875 43.3125 52.78125 
Q 43.3125 58.59375 39.234375 62.25 
Q 35.15625 65.921875 28.609375 65.921875 
Q 23.96875 65.921875 18.8125 64.3125 
Q 13.671875 62.703125 7.8125 59.421875 
L 7.8125 69.390625 
Q 13.765625 71.78125 18.9375 73 
Q 24.125 74.21875 28.421875 74.21875 
Q 39.75 74.21875 46.484375 68.546875 
Q 53.21875 62.890625 53.21875 53.421875 
Q 53.21875 48.921875 51.53125 44.890625 
Q 49.859375 40.875 45.40625 35.40625 
Q 44.1875 33.984375 37.640625 27.21875 
Q 31.109375 20.453125 19.1875 8.296875 
z
" id="DejaVuSans-50"/>
      </defs>
      <g transform="translate(151.855866 254.356563)scale(0.1 -0.1)">
       <use xlink:href="#DejaVuSans-8722"/>
       <use x="83.789062" xlink:href="#DejaVuSans-50"/>
      </g>
     </g>
    </g>
    <g id="xtick_3">
     <g id="line2d_3">
      <g>
       <use style="stroke:#000000;stroke-width:0.8;" x="220.099688" xlink:href="#m537e56240f" y="239.758125"/>
      </g>
     </g>
     <g id="text_3">
      <!-- 0 -->
      <defs>
       <path d="M 31.78125 66.40625 
Q 24.171875 66.40625 20.328125 58.90625 
Q 16.5 51.421875 16.5 36.375 
Q 16.5 21.390625 20.328125 13.890625 
Q 24.171875 6.390625 31.78125 6.390625 
Q 39.453125 6.390625 43.28125 13.890625 
Q 47.125 21.390625 47.125 36.375 
Q 47.125 51.421875 43.28125 58.90625 
Q 39.453125 66.40625 31.78125 66.40625 
z
M 31.78125 74.21875 
Q 44.046875 74.21875 50.515625 64.515625 
Q 56.984375 54.828125 56.984375 36.375 
Q 56.984375 17.96875 50.515625 8.265625 
Q 44.046875 -1.421875 31.78125 -1.421875 
Q 19.53125 -1.421875 13.0625 8.265625 
Q 6.59375 17.96875 6.59375 36.375 
Q 6.59375 54.828125 13.0625 64.515625 
Q 19.53125 74.21875 31.78125 74.21875 
z
" id="DejaVuSans-48"/>
      </defs>
      <g transform="translate(216.918438 254.356563)scale(0.1 -0.1)">
       <use xlink:href="#DejaVuSans-48"/>
      </g>
     </g>
    </g>
    <g id="xtick_4">
     <g id="line2d_4">
      <g>
       <use style="stroke:#000000;stroke-width:0.8;" x="280.972415" xlink:href="#m537e56240f" y="239.758125"/>
      </g>
     </g>
     <g id="text_4">
      <!-- 2 -->
      <g transform="translate(277.791165 254.356563)scale(0.1 -0.1)">
       <use xlink:href="#DejaVuSans-50"/>
      </g>
     </g>
    </g>
    <g id="xtick_5">
     <g id="line2d_5">
      <g>
       <use style="stroke:#000000;stroke-width:0.8;" x="341.845142" xlink:href="#m537e56240f" y="239.758125"/>
      </g>
     </g>
     <g id="text_5">
      <!-- 4 -->
      <g transform="translate(338.663892 254.356563)scale(0.1 -0.1)">
       <use xlink:href="#DejaVuSans-52"/>
      </g>
     </g>
    </g>
   </g>
   <g id="matplotlib.axis_2">
    <g id="ytick_1">
     <g id="line2d_6">
      <defs>
       <path d="M 0 0 
L -3.5 0 
" id="mf80a30b657" style="stroke:#000000;stroke-width:0.8;"/>
      </defs>
      <g>
       <use style="stroke:#000000;stroke-width:0.8;" x="52.699687" xlink:href="#mf80a30b657" y="234.353238"/>
      </g>
     </g>
     <g id="text_6">
      <!-- −20 -->
      <g transform="translate(24.595 238.152457)scale(0.1 -0.1)">
       <use xlink:href="#DejaVuSans-8722"/>
       <use x="83.789062" xlink:href="#DejaVuSans-50"/>
       <use x="147.412109" xlink:href="#DejaVuSans-48"/>
      </g>
     </g>
    </g>
    <g id="ytick_2">
     <g id="line2d_7">
      <g>
       <use style="stroke:#000000;stroke-width:0.8;" x="52.699687" xlink:href="#mf80a30b657" y="209.818744"/>
      </g>
     </g>
     <g id="text_7">
      <!-- 0 -->
      <g transform="translate(39.337187 213.617963)scale(0.1 -0.1)">
       <use xlink:href="#DejaVuSans-48"/>
      </g>
     </g>
    </g>
    <g id="ytick_3">
     <g id="line2d_8">
      <g>
       <use style="stroke:#000000;stroke-width:0.8;" x="52.699687" xlink:href="#mf80a30b657" y="185.28425"/>
      </g>
     </g>
     <g id="text_8">
      <!-- 20 -->
      <g transform="translate(32.974687 189.083468)scale(0.1 -0.1)">
       <use xlink:href="#DejaVuSans-50"/>
       <use x="63.623047" xlink:href="#DejaVuSans-48"/>
      </g>
     </g>
    </g>
    <g id="ytick_4">
     <g id="line2d_9">
      <g>
       <use style="stroke:#000000;stroke-width:0.8;" x="52.699687" xlink:href="#mf80a30b657" y="160.749755"/>
      </g>
     </g>
     <g id="text_9">
      <!-- 40 -->
      <g transform="translate(32.974687 164.548974)scale(0.1 -0.1)">
       <use xlink:href="#DejaVuSans-52"/>
       <use x="63.623047" xlink:href="#DejaVuSans-48"/>
      </g>
     </g>
    </g>
    <g id="ytick_5">
     <g id="line2d_10">
      <g>
       <use style="stroke:#000000;stroke-width:0.8;" x="52.699687" xlink:href="#mf80a30b657" y="136.215261"/>
      </g>
     </g>
     <g id="text_10">
      <!-- 60 -->
      <defs>
       <path d="M 33.015625 40.375 
Q 26.375 40.375 22.484375 35.828125 
Q 18.609375 31.296875 18.609375 23.390625 
Q 18.609375 15.53125 22.484375 10.953125 
Q 26.375 6.390625 33.015625 6.390625 
Q 39.65625 6.390625 43.53125 10.953125 
Q 47.40625 15.53125 47.40625 23.390625 
Q 47.40625 31.296875 43.53125 35.828125 
Q 39.65625 40.375 33.015625 40.375 
z
M 52.59375 71.296875 
L 52.59375 62.3125 
Q 48.875 64.0625 45.09375 64.984375 
Q 41.3125 65.921875 37.59375 65.921875 
Q 27.828125 65.921875 22.671875 59.328125 
Q 17.53125 52.734375 16.796875 39.40625 
Q 19.671875 43.65625 24.015625 45.921875 
Q 28.375 48.1875 33.59375 48.1875 
Q 44.578125 48.1875 50.953125 41.515625 
Q 57.328125 34.859375 57.328125 23.390625 
Q 57.328125 12.15625 50.6875 5.359375 
Q 44.046875 -1.421875 33.015625 -1.421875 
Q 20.359375 -1.421875 13.671875 8.265625 
Q 6.984375 17.96875 6.984375 36.375 
Q 6.984375 53.65625 15.1875 63.9375 
Q 23.390625 74.21875 37.203125 74.21875 
Q 40.921875 74.21875 44.703125 73.484375 
Q 48.484375 72.75 52.59375 71.296875 
z
" id="DejaVuSans-54"/>
      </defs>
      <g transform="translate(32.974687 140.01448)scale(0.1 -0.1)">
       <use xlink:href="#DejaVuSans-54"/>
       <use x="63.623047" xlink:href="#DejaVuSans-48"/>
      </g>
     </g>
    </g>
    <g id="ytick_6">
     <g id="line2d_11">
      <g>
       <use style="stroke:#000000;stroke-width:0.8;" x="52.699687" xlink:href="#mf80a30b657" y="111.680767"/>
      </g>
     </g>
     <g id="text_11">
      <!-- 80 -->
      <defs>
       <path d="M 31.78125 34.625 
Q 24.75 34.625 20.71875 30.859375 
Q 16.703125 27.09375 16.703125 20.515625 
Q 16.703125 13.921875 20.71875 10.15625 
Q 24.75 6.390625 31.78125 6.390625 
Q 38.8125 6.390625 42.859375 10.171875 
Q 46.921875 13.96875 46.921875 20.515625 
Q 46.921875 27.09375 42.890625 30.859375 
Q 38.875 34.625 31.78125 34.625 
z
M 21.921875 38.8125 
Q 15.578125 40.375 12.03125 44.71875 
Q 8.5 49.078125 8.5 55.328125 
Q 8.5 64.0625 14.71875 69.140625 
Q 20.953125 74.21875 31.78125 74.21875 
Q 42.671875 74.21875 48.875 69.140625 
Q 55.078125 64.0625 55.078125 55.328125 
Q 55.078125 49.078125 51.53125 44.71875 
Q 48 40.375 41.703125 38.8125 
Q 48.828125 37.15625 52.796875 32.3125 
Q 56.78125 27.484375 56.78125 20.515625 
Q 56.78125 9.90625 50.3125 4.234375 
Q 43.84375 -1.421875 31.78125 -1.421875 
Q 19.734375 -1.421875 13.25 4.234375 
Q 6.78125 9.90625 6.78125 20.515625 
Q 6.78125 27.484375 10.78125 32.3125 
Q 14.796875 37.15625 21.921875 38.8125 
z
M 18.3125 54.390625 
Q 18.3125 48.734375 21.84375 45.5625 
Q 25.390625 42.390625 31.78125 42.390625 
Q 38.140625 42.390625 41.71875 45.5625 
Q 45.3125 48.734375 45.3125 54.390625 
Q 45.3125 60.0625 41.71875 63.234375 
Q 38.140625 66.40625 31.78125 66.40625 
Q 25.390625 66.40625 21.84375 63.234375 
Q 18.3125 60.0625 18.3125 54.390625 
z
" id="DejaVuSans-56"/>
      </defs>
      <g transform="translate(32.974687 115.479986)scale(0.1 -0.1)">
       <use xlink:href="#DejaVuSans-56"/>
       <use x="63.623047" xlink:href="#DejaVuSans-48"/>
      </g>
     </g>
    </g>
    <g id="ytick_7">
     <g id="line2d_12">
      <g>
       <use style="stroke:#000000;stroke-width:0.8;" x="52.699687" xlink:href="#mf80a30b657" y="87.146273"/>
      </g>
     </g>
     <g id="text_12">
      <!-- 100 -->
      <defs>
       <path d="M 12.40625 8.296875 
L 28.515625 8.296875 
L 28.515625 63.921875 
L 10.984375 60.40625 
L 10.984375 69.390625 
L 28.421875 72.90625 
L 38.28125 72.90625 
L 38.28125 8.296875 
L 54.390625 8.296875 
L 54.390625 0 
L 12.40625 0 
z
" id="DejaVuSans-49"/>
      </defs>
      <g transform="translate(26.612187 90.945492)scale(0.1 -0.1)">
       <use xlink:href="#DejaVuSans-49"/>
       <use x="63.623047" xlink:href="#DejaVuSans-48"/>
       <use x="127.246094" xlink:href="#DejaVuSans-48"/>
      </g>
     </g>
    </g>
    <g id="ytick_8">
     <g id="line2d_13">
      <g>
       <use style="stroke:#000000;stroke-width:0.8;" x="52.699687" xlink:href="#mf80a30b657" y="62.611779"/>
      </g>
     </g>
     <g id="text_13">
      <!-- 120 -->
      <g transform="translate(26.612187 66.410997)scale(0.1 -0.1)">
       <use xlink:href="#DejaVuSans-49"/>
       <use x="63.623047" xlink:href="#DejaVuSans-50"/>
       <use x="127.246094" xlink:href="#DejaVuSans-48"/>
      </g>
     </g>
    </g>
    <g id="ytick_9">
     <g id="line2d_14">
      <g>
       <use style="stroke:#000000;stroke-width:0.8;" x="52.699687" xlink:href="#mf80a30b657" y="38.077285"/>
      </g>
     </g>
     <g id="text_14">
      <!-- 140 -->
      <g transform="translate(26.612187 41.876503)scale(0.1 -0.1)">
       <use xlink:href="#DejaVuSans-49"/>
       <use x="63.623047" xlink:href="#DejaVuSans-52"/>
       <use x="127.246094" xlink:href="#DejaVuSans-48"/>
      </g>
     </g>
    </g>
   </g>
   <g id="line2d_15">
    <path clip-path="url(#p5d97e80ba2)" d="M 67.917869 47.202559 
L 70.992249 58.200098 
L 74.06663 68.638335 
L 77.14101 78.536204 
L 80.21539 87.912327 
L 83.28977 96.785007 
L 86.36415 105.172233 
L 89.43853 113.091676 
L 92.512911 120.560693 
L 95.587291 127.596323 
L 98.661671 134.215292 
L 101.736051 140.434007 
L 104.810431 146.268561 
L 107.884811 151.73473 
L 110.959192 156.847974 
L 114.033572 161.623438 
L 117.107952 166.07595 
L 120.182332 170.220022 
L 123.256712 174.069852 
L 126.331092 177.639318 
L 129.405473 180.941987 
L 132.479853 183.991106 
L 135.554233 186.799608 
L 138.628613 189.380109 
L 141.702993 191.744911 
L 144.777373 193.905997 
L 147.851754 195.875037 
L 150.926134 197.663382 
L 154.000514 199.282071 
L 157.074894 200.741823 
L 160.149274 202.053043 
L 163.223654 203.22582 
L 166.298035 204.269927 
L 169.372415 205.194821 
L 172.446795 206.009642 
L 175.521175 206.723216 
L 178.595555 207.344051 
L 181.669935 207.88034 
L 184.744316 208.33996 
L 187.818696 208.730473 
L 190.893076 209.059123 
L 193.967456 209.332839 
L 197.041836 209.558235 
L 200.116216 209.741607 
L 203.190597 209.888937 
L 206.264977 210.00589 
L 209.339357 210.097814 
L 212.413737 210.169744 
L 215.488117 210.226396 
L 218.562497 210.272172 
L 221.636878 210.311156 
L 224.711258 210.347119 
L 227.785638 210.383514 
L 230.860018 210.423477 
L 233.934398 210.469831 
L 237.008778 210.525081 
L 240.083159 210.591415 
L 243.157539 210.670709 
L 246.231919 210.764518 
L 249.306299 210.874086 
L 252.380679 211.000336 
L 255.455059 211.14388 
L 258.52944 211.305009 
L 261.60382 211.483703 
L 264.6782 211.679623 
L 267.75258 211.892114 
L 270.82696 212.120206 
L 273.90134 212.362613 
L 276.975721 212.617732 
L 280.050101 212.883646 
L 283.124481 213.15812 
L 286.198861 213.438604 
L 289.273241 213.722232 
L 292.347621 214.005822 
L 295.422002 214.285876 
L 298.496382 214.558579 
L 301.570762 214.819802 
L 304.645142 215.065099 
L 307.719522 215.289707 
L 310.793902 215.488549 
L 313.868283 215.656231 
L 316.942663 215.787043 
L 320.017043 215.874958 
L 323.091423 215.913637 
L 326.165803 215.896419 
L 329.240183 215.816332 
L 332.314564 215.666086 
L 335.388944 215.438075 
L 338.463324 215.124378 
L 341.537704 214.716756 
L 344.612084 214.206656 
L 347.686464 213.585209 
L 350.760845 212.843228 
L 353.835225 211.971213 
L 356.909605 210.959346 
L 359.983985 209.797492 
L 363.058365 208.475204 
L 366.132745 206.981714 
L 369.207126 205.305943 
L 372.281506 203.436492 
" style="fill:none;stroke:#ff0000;stroke-linecap:square;stroke-width:2;"/>
   </g>
   <g id="line2d_16">
    <defs>
     <path d="M 0 -3 
L -0.673542 -0.927051 
L -2.85317 -0.927051 
L -1.089814 0.354102 
L -1.763356 2.427051 
L -0 1.145898 
L 1.763356 2.427051 
L 1.089814 0.354102 
L 2.85317 -0.927051 
L 0.673542 -0.927051 
z
" id="ma17033ec98" style="stroke:#0000ff;stroke-linejoin:bevel;"/>
    </defs>
    <g clip-path="url(#p5d97e80ba2)">
     <use style="fill:#0000ff;stroke:#0000ff;stroke-linejoin:bevel;" x="74.616432" xlink:href="#ma17033ec98" y="55.024336"/>
     <use style="fill:#0000ff;stroke:#0000ff;stroke-linejoin:bevel;" x="87.152022" xlink:href="#ma17033ec98" y="108.953639"/>
     <use style="fill:#0000ff;stroke:#0000ff;stroke-linejoin:bevel;" x="92.370471" xlink:href="#ma17033ec98" y="120.896506"/>
     <use style="fill:#0000ff;stroke:#0000ff;stroke-linejoin:bevel;" x="100.210601" xlink:href="#ma17033ec98" y="140.377517"/>
     <use style="fill:#0000ff;stroke:#0000ff;stroke-linejoin:bevel;" x="110.762783" xlink:href="#ma17033ec98" y="149.239638"/>
     <use style="fill:#0000ff;stroke:#0000ff;stroke-linejoin:bevel;" x="114.789954" xlink:href="#ma17033ec98" y="161.850871"/>
     <use style="fill:#0000ff;stroke:#0000ff;stroke-linejoin:bevel;" x="115.766693" xlink:href="#ma17033ec98" y="154.935168"/>
     <use style="fill:#0000ff;stroke:#0000ff;stroke-linejoin:bevel;" x="115.860743" xlink:href="#ma17033ec98" y="152.535475"/>
     <use style="fill:#0000ff;stroke:#0000ff;stroke-linejoin:bevel;" x="121.326184" xlink:href="#ma17033ec98" y="163.808637"/>
     <use style="fill:#0000ff;stroke:#0000ff;stroke-linejoin:bevel;" x="122.658093" xlink:href="#ma17033ec98" y="163.294587"/>
     <use style="fill:#0000ff;stroke:#0000ff;stroke-linejoin:bevel;" x="140.013805" xlink:href="#ma17033ec98" y="180.50508"/>
     <use style="fill:#0000ff;stroke:#0000ff;stroke-linejoin:bevel;" x="143.304046" xlink:href="#ma17033ec98" y="206.628677"/>
     <use style="fill:#0000ff;stroke:#0000ff;stroke-linejoin:bevel;" x="145.664422" xlink:href="#ma17033ec98" y="182.029746"/>
     <use style="fill:#0000ff;stroke:#0000ff;stroke-linejoin:bevel;" x="149.203103" xlink:href="#ma17033ec98" y="208.823488"/>
     <use style="fill:#0000ff;stroke:#0000ff;stroke-linejoin:bevel;" x="149.787838" xlink:href="#ma17033ec98" y="215.450334"/>
     <use style="fill:#0000ff;stroke:#0000ff;stroke-linejoin:bevel;" x="155.360019" xlink:href="#ma17033ec98" y="193.597126"/>
     <use style="fill:#0000ff;stroke:#0000ff;stroke-linejoin:bevel;" x="158.354335" xlink:href="#ma17033ec98" y="201.74099"/>
     <use style="fill:#0000ff;stroke:#0000ff;stroke-linejoin:bevel;" x="173.490609" xlink:href="#ma17033ec98" y="201.751544"/>
     <use style="fill:#0000ff;stroke:#0000ff;stroke-linejoin:bevel;" x="175.567592" xlink:href="#ma17033ec98" y="192.509211"/>
     <use style="fill:#0000ff;stroke:#0000ff;stroke-linejoin:bevel;" x="182.591007" xlink:href="#ma17033ec98" y="200.047398"/>
     <use style="fill:#0000ff;stroke:#0000ff;stroke-linejoin:bevel;" x="183.583265" xlink:href="#ma17033ec98" y="192.857656"/>
     <use style="fill:#0000ff;stroke:#0000ff;stroke-linejoin:bevel;" x="193.905886" xlink:href="#ma17033ec98" y="205.280008"/>
     <use style="fill:#0000ff;stroke:#0000ff;stroke-linejoin:bevel;" x="197.302091" xlink:href="#ma17033ec98" y="189.152022"/>
     <use style="fill:#0000ff;stroke:#0000ff;stroke-linejoin:bevel;" x="201.410386" xlink:href="#ma17033ec98" y="198.920246"/>
     <use style="fill:#0000ff;stroke:#0000ff;stroke-linejoin:bevel;" x="202.256501" xlink:href="#ma17033ec98" y="200.068509"/>
     <use style="fill:#0000ff;stroke:#0000ff;stroke-linejoin:bevel;" x="208.02869" xlink:href="#ma17033ec98" y="225.188682"/>
     <use style="fill:#0000ff;stroke:#0000ff;stroke-linejoin:bevel;" x="217.452693" xlink:href="#ma17033ec98" y="223.26703"/>
     <use style="fill:#0000ff;stroke:#0000ff;stroke-linejoin:bevel;" x="220.532984" xlink:href="#ma17033ec98" y="227.978574"/>
     <use style="fill:#0000ff;stroke:#0000ff;stroke-linejoin:bevel;" x="245.948243" xlink:href="#ma17033ec98" y="229.874489"/>
     <use style="fill:#0000ff;stroke:#0000ff;stroke-linejoin:bevel;" x="246.570556" xlink:href="#ma17033ec98" y="205.87412"/>
     <use style="fill:#0000ff;stroke:#0000ff;stroke-linejoin:bevel;" x="250.70431" xlink:href="#ma17033ec98" y="211.92529"/>
     <use style="fill:#0000ff;stroke:#0000ff;stroke-linejoin:bevel;" x="252.431997" xlink:href="#ma17033ec98" y="201.944486"/>
     <use style="fill:#0000ff;stroke:#0000ff;stroke-linejoin:bevel;" x="262.912387" xlink:href="#ma17033ec98" y="214.442995"/>
     <use style="fill:#0000ff;stroke:#0000ff;stroke-linejoin:bevel;" x="264.287072" xlink:href="#ma17033ec98" y="226.649465"/>
     <use style="fill:#0000ff;stroke:#0000ff;stroke-linejoin:bevel;" x="271.147899" xlink:href="#ma17033ec98" y="215.376476"/>
     <use style="fill:#0000ff;stroke:#0000ff;stroke-linejoin:bevel;" x="277.788224" xlink:href="#ma17033ec98" y="190.365979"/>
     <use style="fill:#0000ff;stroke:#0000ff;stroke-linejoin:bevel;" x="287.968583" xlink:href="#ma17033ec98" y="225.501376"/>
     <use style="fill:#0000ff;stroke:#0000ff;stroke-linejoin:bevel;" x="294.638685" xlink:href="#ma17033ec98" y="213.686444"/>
     <use style="fill:#0000ff;stroke:#0000ff;stroke-linejoin:bevel;" x="297.07239" xlink:href="#ma17033ec98" y="215.047508"/>
     <use style="fill:#0000ff;stroke:#0000ff;stroke-linejoin:bevel;" x="298.763717" xlink:href="#ma17033ec98" y="215.001236"/>
     <use style="fill:#0000ff;stroke:#0000ff;stroke-linejoin:bevel;" x="300.720699" xlink:href="#ma17033ec98" y="212.362857"/>
     <use style="fill:#0000ff;stroke:#0000ff;stroke-linejoin:bevel;" x="302.243666" xlink:href="#ma17033ec98" y="225.169994"/>
     <use style="fill:#0000ff;stroke:#0000ff;stroke-linejoin:bevel;" x="304.530281" xlink:href="#ma17033ec98" y="226.394442"/>
     <use style="fill:#0000ff;stroke:#0000ff;stroke-linejoin:bevel;" x="308.134738" xlink:href="#ma17033ec98" y="213.594574"/>
     <use style="fill:#0000ff;stroke:#0000ff;stroke-linejoin:bevel;" x="311.194995" xlink:href="#ma17033ec98" y="211.888671"/>
     <use style="fill:#0000ff;stroke:#0000ff;stroke-linejoin:bevel;" x="315.487642" xlink:href="#ma17033ec98" y="210.58914"/>
     <use style="fill:#0000ff;stroke:#0000ff;stroke-linejoin:bevel;" x="324.31945" xlink:href="#ma17033ec98" y="208.754157"/>
     <use style="fill:#0000ff;stroke:#0000ff;stroke-linejoin:bevel;" x="328.862547" xlink:href="#ma17033ec98" y="212.816782"/>
     <use style="fill:#0000ff;stroke:#0000ff;stroke-linejoin:bevel;" x="344.935119" xlink:href="#ma17033ec98" y="206.316003"/>
     <use style="fill:#0000ff;stroke:#0000ff;stroke-linejoin:bevel;" x="357.244871" xlink:href="#ma17033ec98" y="209.160116"/>
    </g>
   </g>
   <g id="line2d_17">
    <path clip-path="url(#p5d97e80ba2)" d="M 67.917869 32.201761 
L 70.992249 45.297525 
L 74.06663 57.5884 
L 77.14101 69.110325 
L 80.21539 79.898427 
L 83.28977 89.987016 
L 86.36415 99.409571 
L 89.43853 108.198733 
L 92.512911 116.386299 
L 95.587291 124.003215 
L 98.661671 131.079569 
L 101.736051 137.644589 
L 104.810431 143.726636 
L 107.884811 149.353199 
L 110.959192 154.5509 
L 114.033572 159.345483 
L 117.107952 163.76182 
L 120.182332 167.823907 
L 123.256712 171.554867 
L 126.331092 174.976947 
L 129.405473 178.111529 
L 132.479853 180.979123 
L 135.554233 183.599379 
L 138.628613 185.991086 
L 141.702993 188.17218 
L 144.777373 190.159751 
L 147.851754 191.970049 
L 150.926134 193.61849 
L 154.000514 195.11967 
L 157.074894 196.487368 
L 160.149274 197.73456 
L 163.223654 198.873431 
L 166.298035 199.915385 
L 169.372415 200.871056 
L 172.446795 201.750326 
L 175.521175 202.562335 
L 178.595555 203.315499 
L 181.669935 204.017525 
L 184.744316 204.675426 
L 187.818696 205.295541 
L 190.893076 205.883553 
L 193.967456 206.444505 
L 197.041836 206.982825 
L 200.116216 207.502342 
L 203.190597 208.00631 
L 206.264977 208.497431 
L 209.339357 208.977874 
L 212.413737 209.449304 
L 215.488117 209.912904 
L 218.562497 210.3694 
L 221.636878 210.81909 
L 224.711258 211.261868 
L 227.785638 211.697254 
L 230.860018 212.12442 
L 233.934398 212.542225 
L 237.008778 212.949239 
L 240.083159 213.343777 
L 243.157539 213.723933 
L 246.231919 214.087607 
L 249.306299 214.432546 
L 252.380679 214.756372 
L 255.455059 215.056619 
L 258.52944 215.330771 
L 261.60382 215.576296 
L 264.6782 215.790686 
L 267.75258 215.971491 
L 270.82696 216.116365 
L 273.90134 216.223099 
L 276.975721 216.289666 
L 280.050101 216.314261 
L 283.124481 216.295344 
L 286.198861 216.231682 
L 289.273241 216.122393 
L 292.347621 215.966994 
L 295.422002 215.765441 
L 298.496382 215.51818 
L 301.570762 215.226192 
L 304.645142 214.891041 
L 307.719522 214.514923 
L 310.793902 214.100716 
L 313.868283 213.652029 
L 316.942663 213.173256 
L 320.017043 212.669625 
L 323.091423 212.14725 
L 326.165803 211.613189 
L 329.240183 211.075494 
L 332.314564 210.543269 
L 335.388944 210.026724 
L 338.463324 209.537231 
L 341.537704 209.087387 
L 344.612084 208.691065 
L 347.686464 208.363477 
L 350.760845 208.121235 
L 353.835225 207.982409 
L 356.909605 207.96659 
L 359.983985 208.094952 
L 363.058365 208.390317 
L 366.132745 208.877215 
L 369.207126 209.581953 
L 372.281506 210.532676 
" style="fill:none;stroke:#008000;stroke-linecap:square;stroke-width:2;"/>
   </g>
   <g id="patch_3">
    <path d="M 52.699687 239.758125 
L 52.699687 22.318125 
" style="fill:none;stroke:#000000;stroke-linecap:square;stroke-linejoin:miter;stroke-width:0.8;"/>
   </g>
   <g id="patch_4">
    <path d="M 387.499687 239.758125 
L 387.499687 22.318125 
" style="fill:none;stroke:#000000;stroke-linecap:square;stroke-linejoin:miter;stroke-width:0.8;"/>
   </g>
   <g id="patch_5">
    <path d="M 52.699688 239.758125 
L 387.499688 239.758125 
" style="fill:none;stroke:#000000;stroke-linecap:square;stroke-linejoin:miter;stroke-width:0.8;"/>
   </g>
   <g id="patch_6">
    <path d="M 52.699688 22.318125 
L 387.499688 22.318125 
" style="fill:none;stroke:#000000;stroke-linecap:square;stroke-linejoin:miter;stroke-width:0.8;"/>
   </g>
   <g id="text_15">
    <!-- Model found: 0.10x^4 -0.50x^3 +0.19x^2 -0.31x -0.39 Error: 3119.76 -->
    <defs>
     <path d="M 9.8125 72.90625 
L 24.515625 72.90625 
L 43.109375 23.296875 
L 61.8125 72.90625 
L 76.515625 72.90625 
L 76.515625 0 
L 66.890625 0 
L 66.890625 64.015625 
L 48.09375 14.015625 
L 38.1875 14.015625 
L 19.390625 64.015625 
L 19.390625 0 
L 9.8125 0 
z
" id="DejaVuSans-77"/>
     <path d="M 30.609375 48.390625 
Q 23.390625 48.390625 19.1875 42.75 
Q 14.984375 37.109375 14.984375 27.296875 
Q 14.984375 17.484375 19.15625 11.84375 
Q 23.34375 6.203125 30.609375 6.203125 
Q 37.796875 6.203125 41.984375 11.859375 
Q 46.1875 17.53125 46.1875 27.296875 
Q 46.1875 37.015625 41.984375 42.703125 
Q 37.796875 48.390625 30.609375 48.390625 
z
M 30.609375 56 
Q 42.328125 56 49.015625 48.375 
Q 55.71875 40.765625 55.71875 27.296875 
Q 55.71875 13.875 49.015625 6.21875 
Q 42.328125 -1.421875 30.609375 -1.421875 
Q 18.84375 -1.421875 12.171875 6.21875 
Q 5.515625 13.875 5.515625 27.296875 
Q 5.515625 40.765625 12.171875 48.375 
Q 18.84375 56 30.609375 56 
z
" id="DejaVuSans-111"/>
     <path d="M 45.40625 46.390625 
L 45.40625 75.984375 
L 54.390625 75.984375 
L 54.390625 0 
L 45.40625 0 
L 45.40625 8.203125 
Q 42.578125 3.328125 38.25 0.953125 
Q 33.9375 -1.421875 27.875 -1.421875 
Q 17.96875 -1.421875 11.734375 6.484375 
Q 5.515625 14.40625 5.515625 27.296875 
Q 5.515625 40.1875 11.734375 48.09375 
Q 17.96875 56 27.875 56 
Q 33.9375 56 38.25 53.625 
Q 42.578125 51.265625 45.40625 46.390625 
z
M 14.796875 27.296875 
Q 14.796875 17.390625 18.875 11.75 
Q 22.953125 6.109375 30.078125 6.109375 
Q 37.203125 6.109375 41.296875 11.75 
Q 45.40625 17.390625 45.40625 27.296875 
Q 45.40625 37.203125 41.296875 42.84375 
Q 37.203125 48.484375 30.078125 48.484375 
Q 22.953125 48.484375 18.875 42.84375 
Q 14.796875 37.203125 14.796875 27.296875 
z
" id="DejaVuSans-100"/>
     <path d="M 56.203125 29.59375 
L 56.203125 25.203125 
L 14.890625 25.203125 
Q 15.484375 15.921875 20.484375 11.0625 
Q 25.484375 6.203125 34.421875 6.203125 
Q 39.59375 6.203125 44.453125 7.46875 
Q 49.3125 8.734375 54.109375 11.28125 
L 54.109375 2.78125 
Q 49.265625 0.734375 44.1875 -0.34375 
Q 39.109375 -1.421875 33.890625 -1.421875 
Q 20.796875 -1.421875 13.15625 6.1875 
Q 5.515625 13.8125 5.515625 26.8125 
Q 5.515625 40.234375 12.765625 48.109375 
Q 20.015625 56 32.328125 56 
Q 43.359375 56 49.78125 48.890625 
Q 56.203125 41.796875 56.203125 29.59375 
z
M 47.21875 32.234375 
Q 47.125 39.59375 43.09375 43.984375 
Q 39.0625 48.390625 32.421875 48.390625 
Q 24.90625 48.390625 20.390625 44.140625 
Q 15.875 39.890625 15.1875 32.171875 
z
" id="DejaVuSans-101"/>
     <path d="M 9.421875 75.984375 
L 18.40625 75.984375 
L 18.40625 0 
L 9.421875 0 
z
" id="DejaVuSans-108"/>
     <path id="DejaVuSans-32"/>
     <path d="M 37.109375 75.984375 
L 37.109375 68.5 
L 28.515625 68.5 
Q 23.6875 68.5 21.796875 66.546875 
Q 19.921875 64.59375 19.921875 59.515625 
L 19.921875 54.6875 
L 34.71875 54.6875 
L 34.71875 47.703125 
L 19.921875 47.703125 
L 19.921875 0 
L 10.890625 0 
L 10.890625 47.703125 
L 2.296875 47.703125 
L 2.296875 54.6875 
L 10.890625 54.6875 
L 10.890625 58.5 
Q 10.890625 67.625 15.140625 71.796875 
Q 19.390625 75.984375 28.609375 75.984375 
z
" id="DejaVuSans-102"/>
     <path d="M 8.5 21.578125 
L 8.5 54.6875 
L 17.484375 54.6875 
L 17.484375 21.921875 
Q 17.484375 14.15625 20.5 10.265625 
Q 23.53125 6.390625 29.59375 6.390625 
Q 36.859375 6.390625 41.078125 11.03125 
Q 45.3125 15.671875 45.3125 23.6875 
L 45.3125 54.6875 
L 54.296875 54.6875 
L 54.296875 0 
L 45.3125 0 
L 45.3125 8.40625 
Q 42.046875 3.421875 37.71875 1 
Q 33.40625 -1.421875 27.6875 -1.421875 
Q 18.265625 -1.421875 13.375 4.4375 
Q 8.5 10.296875 8.5 21.578125 
z
M 31.109375 56 
z
" id="DejaVuSans-117"/>
     <path d="M 54.890625 33.015625 
L 54.890625 0 
L 45.90625 0 
L 45.90625 32.71875 
Q 45.90625 40.484375 42.875 44.328125 
Q 39.84375 48.1875 33.796875 48.1875 
Q 26.515625 48.1875 22.3125 43.546875 
Q 18.109375 38.921875 18.109375 30.90625 
L 18.109375 0 
L 9.078125 0 
L 9.078125 54.6875 
L 18.109375 54.6875 
L 18.109375 46.1875 
Q 21.34375 51.125 25.703125 53.5625 
Q 30.078125 56 35.796875 56 
Q 45.21875 56 50.046875 50.171875 
Q 54.890625 44.34375 54.890625 33.015625 
z
" id="DejaVuSans-110"/>
     <path d="M 11.71875 12.40625 
L 22.015625 12.40625 
L 22.015625 0 
L 11.71875 0 
z
M 11.71875 51.703125 
L 22.015625 51.703125 
L 22.015625 39.3125 
L 11.71875 39.3125 
z
" id="DejaVuSans-58"/>
     <path d="M 10.6875 12.40625 
L 21 12.40625 
L 21 0 
L 10.6875 0 
z
" id="DejaVuSans-46"/>
     <path d="M 54.890625 54.6875 
L 35.109375 28.078125 
L 55.90625 0 
L 45.3125 0 
L 29.390625 21.484375 
L 13.484375 0 
L 2.875 0 
L 24.125 28.609375 
L 4.6875 54.6875 
L 15.28125 54.6875 
L 29.78125 35.203125 
L 44.28125 54.6875 
z
" id="DejaVuSans-120"/>
     <path d="M 46.6875 72.90625 
L 73.1875 45.703125 
L 63.375 45.703125 
L 41.890625 64.984375 
L 20.40625 45.703125 
L 10.59375 45.703125 
L 37.109375 72.90625 
z
" id="DejaVuSans-94"/>
     <path d="M 4.890625 31.390625 
L 31.203125 31.390625 
L 31.203125 23.390625 
L 4.890625 23.390625 
z
" id="DejaVuSans-45"/>
     <path d="M 10.796875 72.90625 
L 49.515625 72.90625 
L 49.515625 64.59375 
L 19.828125 64.59375 
L 19.828125 46.734375 
Q 21.96875 47.46875 24.109375 47.828125 
Q 26.265625 48.1875 28.421875 48.1875 
Q 40.625 48.1875 47.75 41.5 
Q 54.890625 34.8125 54.890625 23.390625 
Q 54.890625 11.625 47.5625 5.09375 
Q 40.234375 -1.421875 26.90625 -1.421875 
Q 22.3125 -1.421875 17.546875 -0.640625 
Q 12.796875 0.140625 7.71875 1.703125 
L 7.71875 11.625 
Q 12.109375 9.234375 16.796875 8.0625 
Q 21.484375 6.890625 26.703125 6.890625 
Q 35.15625 6.890625 40.078125 11.328125 
Q 45.015625 15.765625 45.015625 23.390625 
Q 45.015625 31 40.078125 35.4375 
Q 35.15625 39.890625 26.703125 39.890625 
Q 22.75 39.890625 18.8125 39.015625 
Q 14.890625 38.140625 10.796875 36.28125 
z
" id="DejaVuSans-53"/>
     <path d="M 40.578125 39.3125 
Q 47.65625 37.796875 51.625 33 
Q 55.609375 28.21875 55.609375 21.1875 
Q 55.609375 10.40625 48.1875 4.484375 
Q 40.765625 -1.421875 27.09375 -1.421875 
Q 22.515625 -1.421875 17.65625 -0.515625 
Q 12.796875 0.390625 7.625 2.203125 
L 7.625 11.71875 
Q 11.71875 9.328125 16.59375 8.109375 
Q 21.484375 6.890625 26.8125 6.890625 
Q 36.078125 6.890625 40.9375 10.546875 
Q 45.796875 14.203125 45.796875 21.1875 
Q 45.796875 27.640625 41.28125 31.265625 
Q 36.765625 34.90625 28.71875 34.90625 
L 20.21875 34.90625 
L 20.21875 43.015625 
L 29.109375 43.015625 
Q 36.375 43.015625 40.234375 45.921875 
Q 44.09375 48.828125 44.09375 54.296875 
Q 44.09375 59.90625 40.109375 62.90625 
Q 36.140625 65.921875 28.71875 65.921875 
Q 24.65625 65.921875 20.015625 65.03125 
Q 15.375 64.15625 9.8125 62.3125 
L 9.8125 71.09375 
Q 15.4375 72.65625 20.34375 73.4375 
Q 25.25 74.21875 29.59375 74.21875 
Q 40.828125 74.21875 47.359375 69.109375 
Q 53.90625 64.015625 53.90625 55.328125 
Q 53.90625 49.265625 50.4375 45.09375 
Q 46.96875 40.921875 40.578125 39.3125 
z
" id="DejaVuSans-51"/>
     <path d="M 46 62.703125 
L 46 35.5 
L 73.1875 35.5 
L 73.1875 27.203125 
L 46 27.203125 
L 46 0 
L 37.796875 0 
L 37.796875 27.203125 
L 10.59375 27.203125 
L 10.59375 35.5 
L 37.796875 35.5 
L 37.796875 62.703125 
z
" id="DejaVuSans-43"/>
     <path d="M 10.984375 1.515625 
L 10.984375 10.5 
Q 14.703125 8.734375 18.5 7.8125 
Q 22.3125 6.890625 25.984375 6.890625 
Q 35.75 6.890625 40.890625 13.453125 
Q 46.046875 20.015625 46.78125 33.40625 
Q 43.953125 29.203125 39.59375 26.953125 
Q 35.25 24.703125 29.984375 24.703125 
Q 19.046875 24.703125 12.671875 31.3125 
Q 6.296875 37.9375 6.296875 49.421875 
Q 6.296875 60.640625 12.9375 67.421875 
Q 19.578125 74.21875 30.609375 74.21875 
Q 43.265625 74.21875 49.921875 64.515625 
Q 56.59375 54.828125 56.59375 36.375 
Q 56.59375 19.140625 48.40625 8.859375 
Q 40.234375 -1.421875 26.421875 -1.421875 
Q 22.703125 -1.421875 18.890625 -0.6875 
Q 15.09375 0.046875 10.984375 1.515625 
z
M 30.609375 32.421875 
Q 37.25 32.421875 41.125 36.953125 
Q 45.015625 41.5 45.015625 49.421875 
Q 45.015625 57.28125 41.125 61.84375 
Q 37.25 66.40625 30.609375 66.40625 
Q 23.96875 66.40625 20.09375 61.84375 
Q 16.21875 57.28125 16.21875 49.421875 
Q 16.21875 41.5 20.09375 36.953125 
Q 23.96875 32.421875 30.609375 32.421875 
z
" id="DejaVuSans-57"/>
     <path d="M 9.8125 72.90625 
L 55.90625 72.90625 
L 55.90625 64.59375 
L 19.671875 64.59375 
L 19.671875 43.015625 
L 54.390625 43.015625 
L 54.390625 34.71875 
L 19.671875 34.71875 
L 19.671875 8.296875 
L 56.78125 8.296875 
L 56.78125 0 
L 9.8125 0 
z
" id="DejaVuSans-69"/>
     <path d="M 41.109375 46.296875 
Q 39.59375 47.171875 37.8125 47.578125 
Q 36.03125 48 33.890625 48 
Q 26.265625 48 22.1875 43.046875 
Q 18.109375 38.09375 18.109375 28.8125 
L 18.109375 0 
L 9.078125 0 
L 9.078125 54.6875 
L 18.109375 54.6875 
L 18.109375 46.1875 
Q 20.953125 51.171875 25.484375 53.578125 
Q 30.03125 56 36.53125 56 
Q 37.453125 56 38.578125 55.875 
Q 39.703125 55.765625 41.0625 55.515625 
z
" id="DejaVuSans-114"/>
     <path d="M 8.203125 72.90625 
L 55.078125 72.90625 
L 55.078125 68.703125 
L 28.609375 0 
L 18.3125 0 
L 43.21875 64.59375 
L 8.203125 64.59375 
z
" id="DejaVuSans-55"/>
    </defs>
    <g transform="translate(7.2 16.318125)scale(0.12 -0.12)">
     <use xlink:href="#DejaVuSans-77"/>
     <use x="86.279297" xlink:href="#DejaVuSans-111"/>
     <use x="147.460938" xlink:href="#DejaVuSans-100"/>
     <use x="210.9375" xlink:href="#DejaVuSans-101"/>
     <use x="272.460938" xlink:href="#DejaVuSans-108"/>
     <use x="300.244141" xlink:href="#DejaVuSans-32"/>
     <use x="332.03125" xlink:href="#DejaVuSans-102"/>
     <use x="367.236328" xlink:href="#DejaVuSans-111"/>
     <use x="428.417969" xlink:href="#DejaVuSans-117"/>
     <use x="491.796875" xlink:href="#DejaVuSans-110"/>
     <use x="555.175781" xlink:href="#DejaVuSans-100"/>
     <use x="618.652344" xlink:href="#DejaVuSans-58"/>
     <use x="652.34375" xlink:href="#DejaVuSans-32"/>
     <use x="684.130859" xlink:href="#DejaVuSans-48"/>
     <use x="747.753906" xlink:href="#DejaVuSans-46"/>
     <use x="779.541016" xlink:href="#DejaVuSans-49"/>
     <use x="843.164062" xlink:href="#DejaVuSans-48"/>
     <use x="906.787109" xlink:href="#DejaVuSans-120"/>
     <use x="965.966797" xlink:href="#DejaVuSans-94"/>
     <use x="1049.755859" xlink:href="#DejaVuSans-52"/>
     <use x="1113.378906" xlink:href="#DejaVuSans-32"/>
     <use x="1145.166016" xlink:href="#DejaVuSans-45"/>
     <use x="1181.25" xlink:href="#DejaVuSans-48"/>
     <use x="1244.873047" xlink:href="#DejaVuSans-46"/>
     <use x="1276.660156" xlink:href="#DejaVuSans-53"/>
     <use x="1340.283203" xlink:href="#DejaVuSans-48"/>
     <use x="1403.90625" xlink:href="#DejaVuSans-120"/>
     <use x="1463.085938" xlink:href="#DejaVuSans-94"/>
     <use x="1546.875" xlink:href="#DejaVuSans-51"/>
     <use x="1610.498047" xlink:href="#DejaVuSans-32"/>
     <use x="1642.285156" xlink:href="#DejaVuSans-43"/>
     <use x="1726.074219" xlink:href="#DejaVuSans-48"/>
     <use x="1789.697266" xlink:href="#DejaVuSans-46"/>
     <use x="1821.484375" xlink:href="#DejaVuSans-49"/>
     <use x="1885.107422" xlink:href="#DejaVuSans-57"/>
     <use x="1948.730469" xlink:href="#DejaVuSans-120"/>
     <use x="2007.910156" xlink:href="#DejaVuSans-94"/>
     <use x="2091.699219" xlink:href="#DejaVuSans-50"/>
     <use x="2155.322266" xlink:href="#DejaVuSans-32"/>
     <use x="2187.109375" xlink:href="#DejaVuSans-45"/>
     <use x="2223.193359" xlink:href="#DejaVuSans-48"/>
     <use x="2286.816406" xlink:href="#DejaVuSans-46"/>
     <use x="2318.603516" xlink:href="#DejaVuSans-51"/>
     <use x="2382.226562" xlink:href="#DejaVuSans-49"/>
     <use x="2445.849609" xlink:href="#DejaVuSans-120"/>
     <use x="2505.029297" xlink:href="#DejaVuSans-32"/>
     <use x="2536.816406" xlink:href="#DejaVuSans-45"/>
     <use x="2572.900391" xlink:href="#DejaVuSans-48"/>
     <use x="2636.523438" xlink:href="#DejaVuSans-46"/>
     <use x="2668.310547" xlink:href="#DejaVuSans-51"/>
     <use x="2731.933594" xlink:href="#DejaVuSans-57"/>
     <use x="2795.556641" xlink:href="#DejaVuSans-32"/>
     <use x="2827.34375" xlink:href="#DejaVuSans-69"/>
     <use x="2890.527344" xlink:href="#DejaVuSans-114"/>
     <use x="2929.890625" xlink:href="#DejaVuSans-114"/>
     <use x="2968.753906" xlink:href="#DejaVuSans-111"/>
     <use x="3029.935547" xlink:href="#DejaVuSans-114"/>
     <use x="3069.298828" xlink:href="#DejaVuSans-58"/>
     <use x="3102.990234" xlink:href="#DejaVuSans-32"/>
     <use x="3134.777344" xlink:href="#DejaVuSans-51"/>
     <use x="3198.400391" xlink:href="#DejaVuSans-49"/>
     <use x="3262.023438" xlink:href="#DejaVuSans-49"/>
     <use x="3325.646484" xlink:href="#DejaVuSans-57"/>
     <use x="3389.269531" xlink:href="#DejaVuSans-46"/>
     <use x="3421.056641" xlink:href="#DejaVuSans-55"/>
     <use x="3484.679688" xlink:href="#DejaVuSans-54"/>
    </g>
   </g>
  </g>
 </g>
 <defs>
  <clipPath id="p5d97e80ba2">
   <rect height="217.44" width="334.8" x="52.699687" y="22.318125"/>
  </clipPath>
 </defs>
</svg>
